<?xml version="1.0" encoding="UTF-8"?>
<svg version="1.1" xmlns="http://www.w3.org/2000/svg" width="512" height="512">
<path d="M0 0 C0.79065857 -0.00705963 1.58131714 -0.01411926 2.39593506 -0.02139282 C19.56563398 -0.13975959 36.49267566 -0.17924295 53.3984375 3.203125 C54.39407715 3.40180176 55.3897168 3.60047852 56.41552734 3.80517578 C99.04603636 12.62459768 137.61402442 32.43768949 168.92382812 62.77539062 C170.3576467 64.16363086 171.80753031 65.5352182 173.2578125 66.90625 C180.39873519 73.80510751 186.45514151 81.28261181 192.3984375 89.203125 C193.1203125 90.15316406 193.8421875 91.10320312 194.5859375 92.08203125 C199.63325927 98.85451183 204.16958821 105.89370948 208.3984375 113.203125 C208.75550781 113.81865234 209.11257813 114.43417969 209.48046875 115.06835938 C225.84411516 143.66137403 236.13158916 177.20172576 237.3984375 210.203125 C238.605 210.15671875 239.8115625 210.1103125 241.0546875 210.0625 C242.66924586 210.02495213 244.28383128 209.98855523 245.8984375 209.953125 C246.68992187 209.91960937 247.48140625 209.88609375 248.296875 209.8515625 C254.17843618 209.75514346 258.48245194 210.91519818 263.3984375 214.203125 C267.14251262 217.94720012 267.69555803 221.08041847 267.8984375 226.203125 C267.70844208 231.32033494 267.02677413 234.38382328 263.3984375 238.203125 C258.04843096 242.7840681 253.72201129 242.70157424 247.0234375 242.453125 C246.09660156 242.43507813 245.16976563 242.41703125 244.21484375 242.3984375 C241.94162315 242.35156697 239.67058343 242.28598025 237.3984375 242.203125 C237.26888672 243.95109375 237.26888672 243.95109375 237.13671875 245.734375 C233.59330926 288.8443696 218.26137665 330.16013413 191.3984375 364.203125 C190.63917969 365.17378906 189.87992187 366.14445312 189.09765625 367.14453125 C183.51156812 374.11969991 177.5191368 380.69871214 171.3984375 387.203125 C170.78226562 387.86183594 170.16609375 388.52054687 169.53125 389.19921875 C164.55944273 394.34944016 158.9949118 398.75520817 153.3984375 403.203125 C152.44324219 403.986875 151.48804688 404.770625 150.50390625 405.578125 C115.31232333 433.7675316 67.93936194 451.98004964 22.71875 452.44140625 C21.91669632 452.4512001 21.11464264 452.46099396 20.2882843 452.47108459 C-20.78169947 452.86871724 -59.13206306 445.80779501 -95.6015625 426.203125 C-96.25962891 425.85668945 -96.91769531 425.51025391 -97.59570312 425.15332031 C-116.97383445 414.92129252 -133.69054991 401.17550232 -149.6015625 386.203125 C-150.26027344 385.58695312 -150.91898437 384.97078125 -151.59765625 384.3359375 C-156.74787766 379.36413023 -161.15364567 373.7995993 -165.6015625 368.203125 C-166.3853125 367.24792969 -167.1690625 366.29273438 -167.9765625 365.30859375 C-195.32963369 331.16108982 -212.92123546 285.97564431 -214.6015625 242.203125 C-215.17600098 242.22407227 -215.75043945 242.24501953 -216.34228516 242.26660156 C-218.97019624 242.35026264 -221.5978264 242.4019396 -224.2265625 242.453125 C-225.13019531 242.48664063 -226.03382813 242.52015625 -226.96484375 242.5546875 C-232.73199111 242.63887943 -236.04629321 242.10357433 -240.6015625 238.203125 C-244.22989913 234.38382328 -244.91156708 231.32033494 -245.1015625 226.203125 C-244.89868303 221.08041847 -244.34563762 217.94720012 -240.6015625 214.203125 C-234.86184944 210.36426985 -229.88532683 209.66586462 -223.1015625 209.953125 C-222.27914062 209.97117188 -221.45671875 209.98921875 -220.609375 210.0078125 C-218.60625446 210.0543967 -216.60374429 210.12611801 -214.6015625 210.203125 C-214.51519531 209.0378125 -214.42882812 207.8725 -214.33984375 206.671875 C-210.83388327 164.0174943 -195.80120322 121.62127094 -168.6015625 88.203125 C-167.88742188 87.29949219 -167.17328125 86.39585938 -166.4375 85.46484375 C-160.79880382 78.42145471 -154.78103937 71.77000027 -148.6015625 65.203125 C-147.98539062 64.54441406 -147.36921875 63.88570312 -146.734375 63.20703125 C-141.76256773 58.05680984 -136.1980368 53.65104183 -130.6015625 49.203125 C-129.64636719 48.419375 -128.69117188 47.635625 -127.70703125 46.828125 C-92.62591534 18.72720545 -45.12240038 0.27068733 0 0 Z " fill="#65BD3A" transform="translate(244.6015625,29.796875)"/>
<path d="M0 0 C3 1 3 1 3.90762329 2.62916565 C4.15805389 3.3362114 4.4084845 4.04325714 4.66650391 4.77172852 C4.95788742 5.57589706 5.24927094 6.38006561 5.54948425 7.20860291 C5.85542007 8.08980301 6.1613559 8.97100311 6.4765625 9.87890625 C6.8031636 10.79003677 7.12976471 11.7011673 7.46626282 12.63990784 C8.16587906 14.59565018 8.86028186 16.55326372 9.55001831 18.51251221 C10.6246635 21.56154526 11.7152664 24.60440836 12.81079102 27.64599609 C15.83416733 36.05113722 18.8233042 44.46681355 21.73828125 52.91015625 C26.15758681 65.53863378 29.82658761 75.44684968 42.1875 82.125 C50.9947855 85.56918986 59.80872109 85.20001887 68.5625 81.8125 C72.85366075 79.78944281 75.99878525 77.75151843 79 74 C79.70125 73.175 80.4025 72.35 81.125 71.5 C83.06425841 69.01787851 83.06425841 69.01787851 84.625 66.1875 C85.07875 65.465625 85.5325 64.74375 86 64 C86.66 64 87.32 64 88 64 C90.12084559 72.41154342 92.20639548 80.83072221 94.25082397 89.26116943 C95.35373472 93.80073322 96.46703878 98.33772201 97.58129883 102.87451172 C98.15447861 105.21789688 98.72345633 107.56231365 99.28833008 109.90771484 C100.11716574 113.34498023 100.96141576 116.77815316 101.80859375 120.2109375 C102.05459824 121.2465683 102.30060272 122.2821991 102.55406189 123.34921265 C105.61056841 135.58458602 110.06047694 144.15436779 120.9375 150.88671875 C128.67274697 155.0619941 137.37480166 155.3549496 145.8125 152.875 C154.88402072 149.33977501 160.76218679 142.86818733 164.9921875 134.30126953 C166.7166682 130.36353817 167.77484757 126.27220383 168.875 122.125 C170.73842626 115.34631161 172.71495494 108.64862816 175 102 C177.50860107 94.67357747 179.66462967 87.28039035 181.74780273 79.82299805 C183.57116949 73.35346673 185.63069005 66.99526283 187.80712891 60.63720703 C190.55553877 52.52328834 192.78972342 44.27386721 195 36 C195.99 36 196.98 36 198 36 C199.32421875 37.7578125 199.32421875 37.7578125 200.6875 40.125 C205.44346328 47.59362381 211.51922329 51.51251139 220 54 C222.81990341 54.3978557 225.59056149 54.43790532 228.43554688 54.43237305 C229.23650787 54.4425647 230.03746887 54.45275635 230.86270142 54.46325684 C233.48145726 54.49318843 236.09984616 54.50262208 238.71875 54.51171875 C240.54578854 54.52858019 242.37281558 54.54673239 244.1998291 54.56611633 C248.98698331 54.61346341 253.77409087 54.64337147 258.56140137 54.66955566 C263.45509039 54.69943862 268.34861899 54.74594227 273.2421875 54.79101562 C282.82804082 54.87687461 292.41392731 54.94429704 302 55 C301.69077265 58.20115467 301.37725056 61.40187507 301.06298828 64.60253906 C300.93256889 65.95347153 300.93256889 65.95347153 300.79951477 67.33169556 C300.15330489 73.88282358 299.26661107 80.31137771 297.875 86.75 C297.55849487 88.23234131 297.55849487 88.23234131 297.2355957 89.74462891 C290.11847871 121.50949864 276.16747213 151.44207182 256 177 C255.24074219 177.97066406 254.48148437 178.94132813 253.69921875 179.94140625 C248.11313062 186.91657491 242.1206993 193.49558714 236 200 C235.38382812 200.65871094 234.76765625 201.31742188 234.1328125 201.99609375 C229.16100523 207.14631516 223.5964743 211.55208317 218 216 C217.04480469 216.78375 216.08960938 217.5675 215.10546875 218.375 C179.91388583 246.5644066 132.54092444 264.77692464 87.3203125 265.23828125 C86.51825882 265.2480751 85.71620514 265.25786896 84.8898468 265.26795959 C43.81986303 265.66559224 5.46949944 258.60467001 -31 239 C-31.65806641 238.65356445 -32.31613281 238.30712891 -32.99414062 237.95019531 C-52.37227195 227.71816752 -69.08898741 213.97237732 -85 199 C-85.65871094 198.38382813 -86.31742188 197.76765625 -86.99609375 197.1328125 C-92.14631516 192.16100523 -96.55208317 186.5964743 -101 181 C-102.175625 179.56720703 -102.175625 179.56720703 -103.375 178.10546875 C-131.45776153 143.04702126 -146.58286007 99.42281915 -150 55 C-133.17 55 -116.34 55 -99 55 C-96.69 61.93 -94.38 68.86 -92 76 C-90.68 79.3 -89.36 82.6 -88 86 C-87.39583333 87.70833333 -86.79166667 89.41666667 -86.1875 91.125 C-82.65081137 99.85705682 -76.58428926 105.30288466 -68 109 C-60.3807257 111.52368368 -50.43637191 110.99757427 -43.0234375 108.03515625 C-33.74875184 103.29038463 -28.86326697 96.45446182 -25.63085938 86.66040039 C-25.28764648 85.5600647 -25.28764648 85.5600647 -24.9375 84.4375 C-24.68419922 83.6530249 -24.43089844 82.8685498 -24.16992188 82.06030273 C-22.25980077 76.05836687 -20.62588668 69.99852367 -19.05859375 63.8984375 C-17.88271812 59.44502367 -16.47294844 55.07118261 -15.0625 50.6875 C-12.86891712 43.86066539 -10.85554862 37.01037841 -8.97607422 30.09106445 C-6.21159113 19.9941613 -3.0857786 10.0023634 0 0 Z " fill="#275B74" transform="translate(180,217)"/>
<path d="M0 0 C-0.42152344 0.48210938 -0.84304687 0.96421875 -1.27734375 1.4609375 C-1.82519531 2.09257813 -2.37304688 2.72421875 -2.9375 3.375 C-3.48277344 4.00148438 -4.02804688 4.62796875 -4.58984375 5.2734375 C-6.84143793 8.03023702 -7.17474685 9.63321302 -6.9375 13.125 C-6.48900927 17.01814873 -5.44603216 19.07474353 -2.9375 22.0625 C-0.68602296 24.79139868 0.46906091 26.55196085 0.625 30.125 C-0.18988498 35.17728689 -2.21586013 37.83947994 -5.42578125 41.7265625 C-13.85424327 52.31114272 -16.2834734 62.66208267 -15.24365234 75.94091797 C-14.25041522 84.33466736 -10.37990011 90.69206713 -5 97 C-4.525625 97.59425781 -4.05125 98.18851562 -3.5625 98.80078125 C-0.34020837 102.74983974 3.22652874 106.05684796 7.09765625 109.36328125 C9.54793773 111.47142897 11.81816319 113.61361599 14 116 C14 116.66 14 117.32 14 118 C14.85851562 118.36931641 14.85851562 118.36931641 15.734375 118.74609375 C18.36516125 120.20209787 20.11486901 121.94603274 22.25 124.0625 C28.75265389 130.03530802 36.1965868 133.9662889 44 138 C44.80179688 138.433125 45.60359375 138.86625 46.4296875 139.3125 C56.78167202 144.46835221 68.5177164 146.14752032 79.9375 146.4375 C88.26588497 146.68522462 94.53178741 147.87983766 100.85546875 153.7109375 C106.10741392 159.42445505 107.43297045 164.62592794 107.23828125 172.30078125 C106.68970791 178.51494805 103.84154522 182.26241663 99.9375 186.875 C96.10968778 191.53158624 94.47807121 195.02410984 94 201 C93.896875 201.8765625 93.79375 202.753125 93.6875 203.65625 C93.17807055 211.21278689 95.35108761 216.10641313 100 222 C103.7434743 226.18561694 107.62646829 227.81782302 113 229 C111.76388826 235.97880305 109.98343794 242.59198791 107.75 249.3125 C105.38169265 256.59032262 103.12868999 263.88070759 101.0625 271.25 C98.70029222 279.59958591 96.29476276 287.93524396 93.8125 296.25 C93.31278687 297.97524902 93.31278687 297.97524902 92.80297852 299.73535156 C92.48256592 300.7972168 92.16215332 301.85908203 91.83203125 302.953125 C91.55077393 303.90348633 91.2695166 304.85384766 90.97973633 305.83300781 C90.49476685 306.90566895 90.49476685 306.90566895 90 308 C89.01 308.33 88.02 308.66 87 309 C86.71264984 307.83394478 86.71264984 307.83394478 86.41949463 306.64433289 C84.60195579 299.27346844 82.77857651 291.90408409 80.94882584 284.53624249 C80.00861927 280.74946266 79.07058137 276.96217448 78.13769531 273.17358398 C77.23521465 269.50883269 76.32678221 265.8456016 75.41442108 262.18329811 C75.06952791 260.79457626 74.72668521 259.40534331 74.38605499 258.01556969 C69.99919132 238.24547568 69.99919132 238.24547568 56.9140625 223.625 C54.97333206 222.61373816 53.04301434 221.78013839 51 221 C50.0925 220.5875 49.185 220.175 48.25 219.75 C39.37579503 217.70210655 30.91503593 218.38073313 23 223 C16.9028989 227.40237971 12.5124502 232.36341068 9 239 C6.1481791 237.57408955 6.07663338 235.95092399 5.03222656 232.96801758 C4.46087982 231.35416924 4.46087982 231.35416924 3.87799072 229.7077179 C3.46966003 228.5318663 3.06132935 227.35601471 2.640625 226.14453125 C1.9880135 224.29711538 1.33539673 222.44970135 0.6824913 220.60238934 C-0.23567281 217.99909222 -1.147321 215.39353345 -2.05883789 212.78790283 C-3.6347948 208.28367771 -5.2154338 203.7811199 -6.80426025 199.28141785 C-7.64835007 196.88882015 -8.48797184 194.49463943 -9.32220459 192.09858704 C-15.80885929 171.91923314 -15.80885929 171.91923314 -30.375 157.5625 C-38.70145388 153.67959009 -48.87639535 153.24999955 -57.625 156.25 C-69.52052776 162.41805143 -73.8803651 169.42947022 -78 182 C-79.43813426 186.63857239 -80.7266018 191.3141808 -82 196 C-85.79143592 209.8823707 -89.76625793 223.66478561 -94.21630859 237.35180664 C-96.36747882 243.97548135 -98.38549617 250.60640648 -100.2109375 257.328125 C-100.98974182 259.96526439 -101.93639439 262.46584402 -103 265 C-103.66 265 -104.32 265 -105 265 C-105.35715088 263.93152832 -105.71430176 262.86305664 -106.08227539 261.76220703 C-107.42839028 257.74955778 -108.79595407 253.74448353 -110.16967773 249.74121094 C-110.75811599 248.01692756 -111.34093904 246.29071618 -111.91772461 244.5625 C-116.38343358 231.20017082 -120.59438023 218.71415136 -134 212 C-138.09687089 210.44620716 -141.5389218 209.73948104 -145.91357422 209.68115234 C-147.05430389 209.66128265 -148.19503357 209.64141296 -149.37033081 209.62094116 C-150.58616852 209.60938995 -151.80200623 209.59783875 -153.0546875 209.5859375 C-154.31137238 209.56657135 -155.56805725 209.5472052 -156.86282349 209.5272522 C-160.18687688 209.47772276 -163.51082337 209.43640102 -166.83502197 209.39910889 C-170.23386431 209.35894066 -173.63254204 209.30790713 -177.03125 209.2578125 C-183.68739382 209.16190085 -190.34360986 209.0768137 -197 209 C-196.8505573 206.78224769 -196.69852072 204.56467008 -196.54541016 202.34716797 C-196.46102692 201.11223602 -196.37664368 199.87730408 -196.28970337 198.60494995 C-194.27994896 173.59639002 -186.56233278 149.61416527 -176 127 C-175.66887207 126.27876953 -175.33774414 125.55753906 -174.99658203 124.81445312 C-161.14778097 94.85209023 -138.91216209 67.33162787 -113 47 C-112.04996094 46.22140625 -111.09992188 45.4428125 -110.12109375 44.640625 C-81.44867458 21.64409979 -37.62819323 -0.86612209 0 0 Z " fill="#72C0FD" transform="translate(227,32)"/>
<path d="M0 0 C12.02119007 8.54185634 15.80600517 24.08639854 20.51171875 37.4296875 C21.16486557 39.26444138 21.16486557 39.26444138 21.83120728 41.13626099 C22.96945343 44.3338647 24.10235413 47.53333496 25.23400879 50.73327637 C26.39746483 54.01998323 27.56616428 57.30482455 28.734375 60.58984375 C31.01153805 66.99561735 33.28303851 73.40338559 35.55078125 79.8125 C38.37454178 76.2840018 38.37454178 76.2840018 41.19140625 72.75 C47.02397306 65.72826908 53.86035413 60.45296799 63.203125 59.55859375 C74.76832525 59.09717649 82.66284422 62.38673641 91.26171875 70.0078125 C97.83277588 78.05903949 100.13584906 87.73367144 102.5390625 97.6484375 C102.88974311 99.05968165 103.24133791 100.47069891 103.59379578 101.88150024 C104.3244202 104.8162379 105.0472963 107.75272978 105.76391602 110.69091797 C106.68165265 114.45297278 107.61396927 118.21121929 108.55141926 121.96840477 C109.27515178 124.8721908 109.99376084 127.77722366 110.71056175 130.68272781 C111.05285869 132.06963184 111.39615248 133.45629025 111.74047279 134.84269333 C112.21893238 136.77463698 112.69031546 138.70832902 113.16137695 140.64208984 C113.43053421 141.73999847 113.69969147 142.8379071 113.977005 143.96908569 C114.55078125 146.8125 114.55078125 146.8125 114.55078125 150.8125 C116.80274317 149.96803827 116.80274317 149.96803827 117.47363281 147.3996582 C117.79299805 146.31515381 118.11236328 145.23064941 118.44140625 144.11328125 C118.81418701 142.86393799 119.18696777 141.61459473 119.57104492 140.32739258 C119.77039642 139.64609283 119.96974792 138.96479309 120.17514038 138.2628479 C120.81082009 136.09069675 121.45552131 133.92141184 122.1027832 131.75268555 C122.80947241 129.38413885 123.51544237 127.01539516 124.21870422 124.64582825 C127.04699367 115.11697626 129.93873034 105.60751719 132.83361816 96.09872437 C133.71222118 93.21066225 134.58826711 90.32183507 135.46386719 87.43286133 C136.8607048 82.82708534 138.27516591 78.22690888 139.69281006 73.62750244 C140.58745656 70.69216834 141.45569192 67.74974192 142.32275391 64.80615234 C142.91515921 62.84326418 143.50807929 60.88053128 144.1015625 58.91796875 C144.35882614 58.02185379 144.61608978 57.12573883 144.88114929 56.20246887 C147.90469289 46.34992631 153.74795091 39.18805714 162.55078125 33.8125 C170.89824669 30.05813755 179.32550798 29.57474041 188.05078125 32.25 C195.94615689 35.39020622 202.61704054 41.26022217 206.55078125 48.8125 C206.55078125 49.4725 206.55078125 50.1325 206.55078125 50.8125 C208.29059265 50.78038422 208.29059265 50.78038422 210.06555176 50.74761963 C221.01158521 50.54825752 231.95778587 50.37062364 242.90451813 50.21409988 C248.53197217 50.13294063 254.15909157 50.04420709 259.78613281 49.93798828 C265.21947382 49.83570745 270.65278498 49.75355216 276.08665466 49.68517303 C278.15672725 49.65561966 280.2267106 49.6188916 282.29652405 49.5747757 C285.20232655 49.51408348 288.10740381 49.47922452 291.01367188 49.45019531 C291.86387909 49.42646347 292.7140863 49.40273163 293.59005737 49.37828064 C299.39055294 49.3571923 303.69757262 50.57555812 308.55078125 53.8125 C312.29485637 57.55657512 312.84790178 60.68979347 313.05078125 65.8125 C312.86078583 70.92970994 312.17911788 73.99319828 308.55078125 77.8125 C303.29441719 82.22586856 299.20824226 82.38792626 292.64916992 82.33007812 C291.6678862 82.3370874 290.68660248 82.34409668 289.67558289 82.35131836 C286.43968187 82.36888692 283.20465956 82.35727645 279.96875 82.34375 C277.71201917 82.34644588 275.45528948 82.3503291 273.19856262 82.35534668 C268.47007177 82.36124076 263.74188339 82.35268377 259.01342773 82.33398438 C252.96755122 82.31123452 246.92238657 82.32429387 240.87653637 82.34827423 C236.21550694 82.36276793 231.55464462 82.3581091 226.89361 82.34776306 C224.66538724 82.34510362 222.43714908 82.34833784 220.20894432 82.35768127 C217.08574991 82.36790104 213.96368689 82.35226753 210.84057617 82.33007812 C209.92858459 82.33817505 209.01659302 82.34627197 208.07696533 82.35461426 C198.4776102 82.22899834 190.57358208 78.27042337 183.55078125 71.8125 C178.55078125 65.9993932 178.55078125 65.9993932 178.55078125 62.8125 C177.56078125 62.8125 176.57078125 62.8125 175.55078125 62.8125 C175.38835937 64.53339844 175.38835937 64.53339844 175.22265625 66.2890625 C174.6521077 70.83150669 173.33870591 74.89195038 171.80078125 79.1875 C169.68838453 85.28724288 167.77700564 91.38811666 166.11328125 97.625 C164.08476948 105.18626934 161.66519557 112.57327301 159.14135742 119.98217773 C157.21861082 125.67491289 155.49025456 131.38653829 153.92578125 137.1875 C144.90752508 170.44597964 144.90752508 170.44597964 129.30078125 179.75 C121.75209213 182.66653898 112.86602902 183.36195154 105.2109375 180.61328125 C95.88023963 176.03443446 90.0162885 171.24682778 85.55078125 161.8125 C84.70449112 159.17979118 83.93219989 156.58219784 83.22265625 153.9140625 C83.01235779 153.14010132 82.80205933 152.36614014 82.58538818 151.56872559 C79.80082926 141.19820376 77.31244119 130.75163928 74.80078125 120.3125 C74.06165136 117.24378678 73.32160394 114.17531004 72.57855225 111.10754395 C72.12100972 109.21837989 71.66571598 107.3286694 71.21295166 105.43835449 C71.00893738 104.59567017 70.8049231 103.75298584 70.59472656 102.88476562 C70.41661438 102.14407837 70.2385022 101.40339111 70.05499268 100.64025879 C69.59299674 98.7358848 69.59299674 98.7358848 68.55078125 96.8125 C68.51078925 94.81289988 68.50731326 92.81202758 68.55078125 90.8125 C66.52324086 92.63728635 65.18050029 94.38026414 63.67578125 96.6875 C58.44933097 104.37345629 51.46884395 109.31015113 42.55078125 111.8125 C31.49413875 113.20461964 23.2803346 110.89677652 14.42578125 104.20703125 C5.82259595 96.4011239 2.77459065 84.26513275 -0.86947632 73.61120605 C-2.27748264 69.49837137 -3.71049405 65.39424488 -5.140625 61.2890625 C-5.56381767 60.07186523 -5.56381767 60.07186523 -5.99555969 58.83007812 C-8.47297571 51.71472819 -11.01614647 44.62660354 -13.63671875 37.5625 C-14.1795752 36.07435791 -14.1795752 36.07435791 -14.73339844 34.55615234 C-15.06629883 33.66621582 -15.39919922 32.7762793 -15.7421875 31.859375 C-16.02602295 31.09463867 -16.3098584 30.32990234 -16.60229492 29.54199219 C-17.32605007 27.62133365 -17.32605007 27.62133365 -19.44921875 26.8125 C-19.82046875 28.606875 -19.82046875 28.606875 -20.19921875 30.4375 C-21.32861726 35.50032091 -22.74260194 40.45790591 -24.19140625 45.4375 C-25.16149032 48.78436944 -26.09545928 52.1401407 -27.01953125 55.5 C-30.12061705 66.75349776 -33.35863696 77.93307627 -36.95751953 89.03808594 C-38.78623351 94.68671122 -40.50089501 100.35530691 -42.13671875 106.0625 C-45.70497825 118.31157907 -48.88409571 128.20511744 -60.46875 134.8125 C-68.33540932 138.78461989 -77.71579878 139.07066716 -86.26171875 137.1953125 C-94.49546361 134.28777135 -101.17825862 128.80613477 -105.26171875 121.0625 C-107.36408471 116.36649355 -108.98875441 111.52351618 -110.55078125 106.625 C-112.00251181 102.08045215 -113.68405418 97.64333013 -115.5234375 93.2421875 C-115.89082031 92.35789062 -116.25820312 91.47359375 -116.63671875 90.5625 C-117.15298828 89.34820312 -117.15298828 89.34820312 -117.6796875 88.109375 C-118.44921875 85.8125 -118.44921875 85.8125 -118.44921875 81.8125 C-119.32538849 81.82138245 -120.20155823 81.83026489 -121.10427856 81.8394165 C-129.37282842 81.91965922 -137.64124697 81.98051356 -145.91009712 82.01974869 C-150.16093724 82.04059828 -154.41145485 82.06886734 -158.66210938 82.11425781 C-162.7664493 82.15781017 -166.87047958 82.18165688 -170.97503281 82.19200897 C-172.53871407 82.19938357 -174.10237892 82.21378466 -175.66592789 82.23542023 C-177.86115001 82.26458062 -180.05510276 82.26845097 -182.25048828 82.26660156 C-183.49847198 82.27548401 -184.74645569 82.28436646 -186.03225708 82.29351807 C-191.233422 81.56133125 -194.27381503 79.04976707 -197.82421875 75.3125 C-200.22569842 70.14008226 -200.18857963 65.41931999 -199.44921875 59.8125 C-197.2709103 54.72978029 -194.38557867 52.928893 -189.61279297 50.63391113 C-186.26616135 49.36334669 -183.32022858 49.42750285 -179.76171875 49.546875 C-178.17189114 49.58466946 -176.58204586 49.62172521 -174.9921875 49.65820312 C-174.1161084 49.68503174 -173.2400293 49.71186035 -172.33740234 49.73950195 C-167.9738882 49.84978857 -163.61081518 49.8542249 -159.24609375 49.8717041 C-154.2595968 49.89739915 -149.27375759 49.95797238 -144.28759766 50.02001953 C-141.71442606 50.04849758 -139.14116262 50.06957591 -136.56787109 50.08349609 C-132.79871422 50.10496869 -129.03056944 50.15154768 -125.26171875 50.203125 C-124.12299316 50.20435364 -122.98426758 50.20558228 -121.81103516 50.20684814 C-113.10351631 50.36548781 -104.77172902 52.00124893 -98.13671875 58.0625 C-97.54246094 58.58328125 -96.94820313 59.1040625 -96.3359375 59.640625 C-89.88573106 67.06570737 -87.09011987 75.63647116 -83.94506836 84.77758789 C-83.13145509 87.14028543 -82.30228259 89.4970887 -81.47070312 91.85351562 C-80.94570359 93.35645292 -80.4215829 94.85969756 -79.8984375 96.36328125 C-79.65163742 97.06640945 -79.40483734 97.76953766 -79.15055847 98.49397278 C-78.15574812 101.39994911 -77.44921875 103.71718312 -77.44921875 106.8125 C-76.78921875 106.8125 -76.12921875 106.8125 -75.44921875 106.8125 C-75.28268799 106.11519775 -75.11615723 105.41789551 -74.94458008 104.69946289 C-72.93689576 96.46545857 -70.59435939 88.3597981 -68.13671875 80.25 C-67.73375956 78.91255458 -67.33092906 77.57507038 -66.92822266 76.23754883 C-64.56590295 68.40862017 -62.13094373 60.60556064 -59.62231445 52.82226562 C-57.18063559 45.15107768 -55.06615186 37.38758463 -52.98388672 29.61206055 C-49.69483432 17.54472812 -46.16244136 6.61621067 -35.2265625 -0.66796875 C-24.22169541 -6.36581582 -10.6565194 -6.22952149 0 0 Z " fill="#EE3253" transform="translate(199.44921875,190.1875)"/>
<path d="M0 0 C0.99 0 1.98 0 3 0 C4.32421875 1.7578125 4.32421875 1.7578125 5.6875 4.125 C10.44346328 11.59362381 16.51922329 15.51251139 25 18 C27.81990341 18.3978557 30.59056149 18.43790532 33.43554688 18.43237305 C34.23650787 18.4425647 35.03746887 18.45275635 35.86270142 18.46325684 C38.48145726 18.49318843 41.09984616 18.50262208 43.71875 18.51171875 C45.54578854 18.52858019 47.37281558 18.54673239 49.1998291 18.56611633 C53.98698331 18.61346341 58.77409087 18.64337147 63.56140137 18.66955566 C68.45509039 18.69943862 73.34861899 18.74594227 78.2421875 18.79101562 C87.82804082 18.87687461 97.41392731 18.94429704 107 19 C106.69077265 22.20115467 106.37725056 25.40187507 106.06298828 28.60253906 C105.97604202 29.50316071 105.88909576 30.40378235 105.79951477 31.33169556 C105.15330489 37.88282358 104.26661107 44.31137771 102.875 50.75 C102.55849487 52.23234131 102.55849487 52.23234131 102.2355957 53.74462891 C95.11847871 85.50949864 81.16747213 115.44207182 61 141 C60.24074219 141.97066406 59.48148438 142.94132813 58.69921875 143.94140625 C51.22952563 153.2685719 43.3546162 162.51630704 34 170 C34.16048828 168.77023437 34.16048828 168.77023437 34.32421875 167.515625 C34.44410156 166.43796875 34.56398438 165.3603125 34.6875 164.25 C34.87892578 162.64898437 34.87892578 162.64898437 35.07421875 161.015625 C34.9889029 157.54910748 34.23006332 156.54536791 32 154 C32 153.34 32 152.68 32 152 C27.71 151.34 23.42 150.68 19 150 C19 150.66 19 151.32 19 152 C13.58823529 156 13.58823529 156 11 156 C10.67 156.99 10.34 157.98 10 159 C7.85546875 160.1328125 7.85546875 160.1328125 5.1875 161.125 C4.31480469 161.45757812 3.44210937 161.79015625 2.54296875 162.1328125 C-6.78643131 165.3142669 -19.55387117 165.91295018 -28.62890625 161.58203125 C-32.17220292 159.21788768 -35.2013491 156.36219451 -38.26342773 153.42163086 C-62.56017134 130.14863726 -92.57071426 123.54434247 -125.18017578 123.56420898 C-139.97534972 123.54480633 -150.74900825 122.55896647 -162 112 C-168.82525246 104.46088185 -171.7512452 95.74104087 -171.625 85.6875 C-171.615896 84.76469238 -171.60679199 83.84188477 -171.59741211 82.89111328 C-171.19341069 70.88921216 -165.78463983 63.3285254 -158.05078125 54.47265625 C-156.07462264 52.08997359 -154.51723742 49.69249434 -153 47 C-151.71996094 47.23589844 -151.71996094 47.23589844 -150.4140625 47.4765625 C-139.68004478 49.12228146 -130.53893655 48.44868833 -121 43 C-117.99666733 40.66663334 -117.99666733 40.66663334 -116 38 C-115.29875 37.175 -114.5975 36.35 -113.875 35.5 C-111.93574159 33.01787851 -111.93574159 33.01787851 -110.375 30.1875 C-109.92125 29.465625 -109.4675 28.74375 -109 28 C-108.34 28 -107.68 28 -107 28 C-104.87915441 36.41154342 -102.79360452 44.83072221 -100.74917603 53.26116943 C-99.64626528 57.80073322 -98.53296122 62.33772201 -97.41870117 66.87451172 C-96.84552139 69.21789688 -96.27654367 71.56231365 -95.71166992 73.90771484 C-94.88283426 77.34498023 -94.03858424 80.77815316 -93.19140625 84.2109375 C-92.94540176 85.2465683 -92.69939728 86.2821991 -92.44593811 87.34921265 C-89.38943159 99.58458602 -84.93952306 108.15436779 -74.0625 114.88671875 C-66.32725303 119.0619941 -57.62519834 119.3549496 -49.1875 116.875 C-40.11597928 113.33977501 -34.23781321 106.86818733 -30.0078125 98.30126953 C-28.2833318 94.36353817 -27.22515243 90.27220383 -26.125 86.125 C-24.26157374 79.34631161 -22.28504506 72.64862816 -20 66 C-17.49139893 58.67357747 -15.33537033 51.28039035 -13.25219727 43.82299805 C-11.42883051 37.35346673 -9.36930995 30.99526283 -7.19287109 24.63720703 C-4.44446123 16.52328834 -2.21027658 8.27386721 0 0 Z " fill="#1F5ABD" transform="translate(375,253)"/>
<path d="M0 0 C16.83 0 33.66 0 51 0 C53.31 6.93 55.62 13.86 58 21 C59.32 24.3 60.64 27.6 62 31 C62.515625 32.588125 63.03125 34.17625 63.5625 35.8125 C65.90098538 41.70955009 70.03382388 46.07172772 74.18359375 50.74609375 C76.78177423 53.6875458 79.06379937 56.78076191 81.3125 60 C84.19659296 64.08530281 87.06863039 66.95318855 91 70 C91 70.66 91 71.32 91 72 C92.485 72.495 92.485 72.495 94 73 C94 73.66 94 74.32 94 75 C95.98 75.99 95.98 75.99 98 77 C98 77.66 98 78.32 98 79 C98.5878125 79.25910156 99.175625 79.51820313 99.78125 79.78515625 C106.37026121 83.39287189 110.11224785 90.05110693 112.33984375 97.00390625 C114.03185098 104.68301597 114.16631031 112.50912343 110.54296875 119.625 C108.52516319 122.73088805 106.23979919 125.60386697 103.9375 128.5 C96.09696477 138.42539194 94.63771752 147.53948959 96 160 C97.7534891 165.35452418 100.59370404 169.56482286 104 174 C89.145919 168.70257685 76.36461074 154.69418046 65 144 C64.34128906 143.38382813 63.68257812 142.76765625 63.00390625 142.1328125 C57.85368484 137.16100523 53.44791683 131.5964743 49 126 C48.21625 125.04480469 47.4325 124.08960938 46.625 123.10546875 C18.54223847 88.04702126 3.41713993 44.42281915 0 0 Z " fill="#417ED2" transform="translate(30,272)"/>
<path d="M0 0 C3.85239206 2.84192857 6.00022553 5.17218203 6.9140625 10 C7.37960604 15.51755311 6.42296533 18.398538 3 22.75 C-0.41386072 27.22019877 -1.69417453 30.43628984 -1.3125 36.08984375 C0.31050024 41.52845513 4.55286883 44.93247616 8.5 48.8125 C10.00851727 50.55839816 11.48932587 52.32873264 12.9375 54.125 C13.57558594 54.90488281 14.21367187 55.68476563 14.87109375 56.48828125 C20.00778279 63.81760973 19.63781002 73.19991025 18.5 81.8125 C15.85492065 89.66994159 9.70532332 95.76335663 2.6328125 99.90625 C-4.46866704 103.08865577 -12.95757375 102.82143702 -20.3125 100.625 C-32.29944268 95.91661531 -37.64887227 86.24767679 -42.75 74.9375 C-47.45151808 64.03100036 -49.73252803 54.60369691 -49.875 42.6875 C-49.88917969 41.7687207 -49.90335937 40.84994141 -49.91796875 39.90332031 C-49.82957838 27.57728286 -45.77845054 18.576642 -37.4296875 9.58203125 C-28.32237815 0.88275548 -12.20061797 -7.2074021 0 0 Z " fill="#6FC439" transform="translate(120.5,142.1875)"/>
<path d="M0 0 C21.78 0 43.56 0 66 0 C64 20 64 20 63 26 C62.34 26 61.68 26 61 26 C60.7525 26.86625 60.505 27.7325 60.25 28.625 C57.38225286 36.36791729 52.92554512 39.95197011 46 44 C45.41476562 44.37769531 44.82953125 44.75539063 44.2265625 45.14453125 C37.78516117 47.61938545 28.4850022 46.98565719 21.90625 45.125 C13.83905766 41.34039125 7.79215842 35.2752918 3.99609375 27.22265625 C1.99047254 20.73388175 1.66443975 13.90312829 1.21777344 7.15307617 C0.97437877 4.74668879 0.47433927 2.37169633 0 0 Z " fill="#184584" transform="translate(416,272)"/>
<path d="M0 0 C0.99 0.33 1.98 0.66 3 1 C4.25854492 3.56030273 4.25854492 3.56030273 5.48046875 6.93359375 C5.92197266 8.13951172 6.36347656 9.34542969 6.81835938 10.58789062 C7.04289795 11.21928955 7.26743652 11.85068848 7.4987793 12.5012207 C8.1849459 14.43031937 8.88672984 16.35312933 9.59179688 18.27539062 C13 27.67681103 13 27.67681103 13 30 C6.4 29.34 -0.2 28.68 -7 28 C-6.36859451 23.58016159 -5.80936659 19.90017068 -4.58984375 15.72265625 C-4.32236328 14.79775391 -4.05488281 13.87285156 -3.77929688 12.91992188 C-3.50150391 11.97697266 -3.22371094 11.03402344 -2.9375 10.0625 C-2.51500977 8.6074707 -2.51500977 8.6074707 -2.08398438 7.12304688 C-1.39353534 4.74743409 -0.69877999 2.37317295 0 0 Z " fill="#223082" transform="translate(180,217)"/>
<path d="M0 0 C1.12502121 3.37506364 0.87110867 4.20066864 -0.14453125 7.4921875 C-0.40943359 8.36230469 -0.67433594 9.23242188 -0.94726562 10.12890625 C-1.23279297 11.03511719 -1.51832031 11.94132812 -1.8125 12.875 C-2.08642578 13.77347656 -2.36035156 14.67195313 -2.64257812 15.59765625 C-3.93798052 19.80383095 -5.26323306 23.95036782 -7 28 C-7.66 28 -8.32 28 -9 28 C-9.70304222 26.27709395 -10.38683491 24.54632534 -11.0625 22.8125 C-11.44535156 21.84957031 -11.82820313 20.88664062 -12.22265625 19.89453125 C-13.11436097 16.57416344 -13.26251181 15.19573302 -12 12 C-10.15660997 9.70178116 -8.08107981 7.70368992 -5.9375 5.6875 C-5.08575195 4.86282227 -5.08575195 4.86282227 -4.21679688 4.02148438 C-2.82009075 2.67172635 -1.41121163 1.33458475 0 0 Z " fill="#71C040" transform="translate(131,269)"/>
</svg>
